<?xml version="1.0" standalone="no"?>
<!DOCTYPE svg PUBLIC "-//W3C//DTD SVG 20010904//EN"
 "http://www.w3.org/TR/2001/REC-SVG-20010904/DTD/svg10.dtd">
<svg version="1.0"
    xmlns="http://www.w3.org/2000/svg" width="1024.000000pt" height="1024.000000pt" viewBox="0 0 1024.000000 1024.000000" preserveAspectRatio="xMidYMid meet">

    <g transform="translate(0.000000,1024.000000) scale(0.100000,-0.100000)" fill="#000000" stroke="none">
        <path d="M5380 7280 c-177 -14 -340 -61 -536 -155 -105 -51 -139 -73 -172
-110 -80 -91 -126 -202 -144 -344 -6 -47 -16 -90 -22 -96 -30 -26 -86 -105
-106 -149 -49 -110 -49 -264 2 -423 16 -51 31 -93 33 -93 2 0 21 26 42 58 103
157 298 296 498 353 68 20 102 23 235 23 141 0 162 -3 235 -27 166 -55 286
-156 363 -305 49 -95 78 -184 104 -327 20 -104 21 -161 27 -1050 7 -917 8
-942 29 -1020 59 -221 151 -392 290 -532 55 -57 142 -130 142 -120 0 3 -14 35
-30 72 -101 225 -119 565 -45 854 32 126 45 137 45 36 1 -333 131 -645 363
-875 103 -102 113 -105 77 -24 -62 137 -100 320 -100 481 0 84 23 275 41 348
26 102 41 145 48 140 5 -2 9 -64 10 -136 3 -242 54 -466 152 -664 54 -111 134
-235 152 -235 10 0 8 2665 -3 2795 -21 250 -90 500 -193 697 -147 284 -394
531 -672 673 -256 131 -531 180 -865 155z"/>
        <path d="M3130 5076 l0 -2136 590 0 591 0 -3 1613 -4 1612 -26 100 c-45 168
-85 256 -174 391 -95 143 -286 304 -478 401 -131 66 -334 134 -443 149 l-53 7
0 -2137z"/>
    </g>
</svg>
