<svg width="118" height="132" viewBox="0 0 118 132" fill="none"
    xmlns="http://www.w3.org/2000/svg">
    <path d="M101.48 34.95L117.68 31.54L100.52 22.07L100.36 20.02C100.082 16.3185 98.5843 12.8138 96.1017 10.0543C93.6191 7.29486 90.2916 5.43645 86.64 4.76999L60.53 0L70.91 12.88L61.3 28.94L76.37 37.26C76.5902 37.3806 76.7835 37.5447 76.9382 37.7424C77.093 37.9401 77.2058 38.1673 77.27 38.41C77.3344 38.6512 77.35 38.9029 77.3157 39.1502C77.2813 39.3976 77.1978 39.6355 77.07 39.85C76.8238 40.2637 76.4259 40.5652 75.9609 40.6903C75.496 40.8154 75.0006 40.7543 74.58 40.52L59.39 32.14L6.73999 3.07999L6.97998 9.26999C7.05625 11.2689 7.649 13.2139 8.7005 14.9156C9.752 16.6173 11.2264 18.0175 12.98 18.98L35.6 31.47C35.8184 31.5904 36.0106 31.7533 36.1652 31.949C36.3197 32.1448 36.4336 32.3695 36.5 32.61C36.5647 32.8528 36.5804 33.1062 36.5461 33.3551C36.5117 33.6041 36.4281 33.8437 36.3 34.06V34.06C36.0501 34.4725 35.6505 34.7725 35.1846 34.8974C34.7188 35.0222 34.2227 34.9623 33.8 34.73L13.88 23.73L14.11 29.73C14.1863 31.7289 14.779 33.6739 15.8305 35.3756C16.882 37.0773 18.3564 38.4776 20.11 39.44L39.83 50.32C40.0488 50.4424 40.2411 50.6071 40.3956 50.8046C40.5501 51.002 40.6637 51.2282 40.73 51.47C40.795 51.7112 40.8109 51.963 40.7765 52.2104C40.7421 52.4578 40.6583 52.6957 40.53 52.91V52.91C40.2818 53.3244 39.8822 53.6261 39.4156 53.7511C38.9491 53.8762 38.4521 53.8148 38.03 53.58L21.03 44.19L21.26 50.19C21.3373 52.1887 21.9304 54.1333 22.9818 55.8348C24.0332 57.5363 25.5071 58.9368 27.26 59.9L38.94 66.34L44.08 69.18C44.2988 69.3024 44.4911 69.4671 44.6456 69.6646C44.8001 69.862 44.9137 70.0882 44.98 70.33C45.1046 70.8176 45.0328 71.3348 44.78 71.77C44.5301 72.1825 44.1305 72.4825 43.6646 72.6074C43.1987 72.7322 42.7027 72.6723 42.28 72.44L37.03 69.54L0 131.25L10.79 131.19C12.7285 131.179 14.6385 130.722 16.3724 129.855C18.1063 128.988 19.6177 127.734 20.79 126.19L23 123.31L47.79 91.03C47.9431 90.8331 48.134 90.6687 48.3516 90.5467C48.5691 90.4247 48.8089 90.3474 49.0568 90.3195C49.3046 90.2915 49.5556 90.3134 49.7949 90.3839C50.0341 90.4544 50.2569 90.5721 50.45 90.73V90.73C50.8201 91.0385 51.0569 91.478 51.1109 91.9568C51.1649 92.4356 51.0321 92.9168 50.74 93.3L46.11 99.3C53.6116 99.8451 61.1425 98.7673 68.1901 96.14C75.2377 93.5127 81.6364 89.3976 86.9506 84.075C92.2647 78.7523 96.3695 72.347 98.9855 65.2952C101.601 58.2434 102.667 50.7107 102.11 43.21L101.48 34.95Z" fill="#1F75FE"/>
</svg>
